<svg id="Layer_1" enable-background="new 0 0 512 512" height="512" viewBox="0 0 512 512" width="512" xmlns="http://www.w3.org/2000/svg"><path d="m348.5 133.5v47.15c0 51.28-41.56 92.85-92.84 92.85-52.7 0-93.16-42.546-93.16-92.85v-47.15z" fill="#fed8d3"/><path d="m351.521 98.444c-1.932-1.882-3.021-4.465-3.021-7.162v-59.782c0-13.25-10.74-24-24-24h-35.05c-6.189 0-12.344 2.403-16.97 7.03-9.353 9.353-24.571 9.401-33.97-.02-4.599-4.61-10.968-7.01-17.48-7.01h-34.53c-13.255 0-24 10.745-24 24v59.782c0 2.697-1.09 5.28-3.021 7.162l-35.979 35.056h264z" fill="#53545f"/><path d="m420.5 361.11v132.39c0 5.52-4.47 10-10 10h-310c-5.52 0-10-4.48-10-10v-132.39c0-34.58 28.04-62.61 62.62-62.61h204.77c34.58 0 62.61 28.03 62.61 62.61z" fill="#535460"/><path d="m330.704 330.88-29.194 31.383c-1.918 2.061-2.877 4.836-2.644 7.642l1.832 21.98c.447 5.365-3.433 10.121-8.779 10.76-12.112 1.447-9.701.757-12.57 2.705l-23.85-34.98 49-71.87 24.649 17.4c4.949 3.492 5.681 10.546 1.556 14.98z" fill="#5f606e"/><path d="m304.5 298.5-49 71.87-49-71.87z" fill="#3e3f47"/><path d="m281.5 408.5v95h-181c-5.52 0-10-4.48-10-10v-132.39c0-34.58 28.04-62.61 62.62-62.61h53.38c5.571 8.171 70.499 103.406 75 110z" fill="#5f606e"/><path d="m281.5 408.5-62.183-6.046c-5.443-.529-9.452-5.333-8.998-10.784l1.814-21.766c.234-2.806-.726-5.58-2.644-7.642l-29.194-31.383c-4.125-4.434-3.393-11.488 1.555-14.981l24.649-17.4c6.062 8.891 70.251 103.043 75.001 110.002z" fill="#53545f"/><path d="m323.5 143.5v26.25c0 8.837-7.163 16-16 16h-28.848c-3.233 0-6.266-1.563-8.143-4.195l-6.867-9.632c-3.988-5.594-12.298-5.594-16.286 0l-6.867 9.632c-1.877 2.632-4.91 4.195-8.143 4.195h-29.846c-8.83 0-16-7.16-16-16v-26.25c0-5.523 4.477-10 10-10h117c5.523 0 10 4.477 10 10z" fill="#3e3f47"/><path d="m314.66 95.25-73.82 17.86c-13.022 3.151-18.599 10.309-28.43 20.14h-88.65l35.719-34.806c1.932-1.882 3.021-4.465 3.021-7.162v-59.782c0-13.255 10.745-24 24-24h30.16l-12.07 7.66c-11.29 7.39-18.09 19.97-18.09 33.46v36.63c0 5.523 4.477 10 10 10z" fill="#5f606e"/><path d="" fill="#5f606e"/><path d="m387.5 133.5h-23.52l-25.115-32.336c-2.725-3.509-4.205-7.825-4.205-12.268v-52.396c0-5.136-1.975-10.074-5.517-13.793l-14.483-15.207h9.84c13.26 0 24 10.75 24 24v59.782c0 2.697 1.089 5.28 3.021 7.162 3.861 3.762-2.117-2.063 35.979 35.056z" fill="#3e3f47"/><path d="m420.5 361.11v132.39c0 5.52-4.47 10-10 10h-22.41c-4.597-108.821 12.009-132.901-8.93-169.5-10.47-18.3-25.89-29.24-37-35.5h15.73c34.58 0 62.61 28.03 62.61 62.61z" fill="#3e3f47"/><g fill="#2c2c3d"><path d="m91 422.389c10.49 0 10.768-16.889 0-16.889-10.772 0-10.487 16.889 0 16.889z"/><path d="m358.39 291h-204.78c-38.934 0-70.61 31.676-70.61 70.61v24.39c0 4.418 3.582 8 8 8s8-3.582 8-8v-24.39c0-30.112 24.498-54.61 54.61-54.61h28.184c-13.621 9.615-16.255 10.392-16.751 15.174-.238 2.297.527 4.584 2.1 6.275l37.592 40.41-2.707 32.477c-.363 4.36 2.844 8.203 7.198 8.627l64.774 6.297v79.74h-109v-106c0-4.418-3.582-8-8-8s-8 3.582-8 8v106h-48c-1.103 0-2-.897-2-2v-50.833c0-4.418-3.582-8-8-8s-8 3.582-8 8v50.833c0 9.925 8.075 18 18 18h310c9.925 0 18-8.075 18-18v-132.39c0-38.934-31.676-70.61-70.61-70.61zm-68.527 16-24.181 35.465c-2.489 3.65-1.548 8.628 2.103 11.116 3.648 2.488 8.628 1.549 11.116-2.103l28.128-41.254 19.877 14.031-33.764 36.295c-1.534 1.649-2.302 3.869-2.115 6.113l2.359 28.308-10.42 1.245-60.829-89.216zm-71.235 87.801 2.345-28.137c.187-2.244-.581-4.464-2.115-6.113l-33.764-36.295 19.877-14.031 60.79 89.159zm194.372 99.199c0 1.103-.897 2-2 2h-48v-106c0-4.418-3.582-8-8-8s-8 3.582-8 8v106h-57v-84.51l12.948-1.546c4.277-.511 7.382-4.315 7.024-8.607l-2.707-32.477 37.592-40.41c3.299-3.549 2.711-9.193-1.244-11.985l-13.407-9.465h28.184c30.112 0 54.61 24.498 54.61 54.61z"/><path d="m243 455h6c4.418 0 8-3.582 8-8s-3.582-8-8-8h-6c-4.418 0-8 3.582-8 8s3.582 8 8 8z"/><path d="m243 495h6c4.418 0 8-3.582 8-8s-3.582-8-8-8h-6c-4.418 0-8 3.582-8 8s3.582 8 8 8z"/><path d="m124 142h31v39.153c0 54.85 44.358 100.847 101.152 100.847 55.608 0 100.848-45.24 100.848-100.848v-39.152h31c7.156 0 10.717-8.729 5.583-13.729l-36.583-35.646v-60.625c0-17.645-14.355-32-32-32h-35.059c-8.548 0-16.584 3.328-22.628 9.372-6.238 6.238-16.389 6.238-22.627 0-6.043-6.044-14.08-9.372-22.627-9.372h-35.059c-17.645 0-32 14.355-32 32v60.625l-36.583 35.646c-5.125 4.992-1.585 13.729 5.583 13.729zm217 39.152c0 46.225-37.373 84.848-85.153 84.848-46.784 0-84.847-38.062-84.847-84.847v-39.153h8v28.25c0 13.233 10.767 24 24 24h35c2.586 0 5.013-1.25 6.515-3.356l11.485-16.112 11.485 16.111c1.502 2.106 3.929 3.356 6.515 3.356h34c13.233 0 24-10.767 24-24v-28.249h9zm-25-39.152v28.25c0 4.411-3.589 8-8 8h-29.878l-15.607-21.894c-3.188-4.472-9.841-4.471-13.029 0l-15.607 21.894h-30.879c-4.411 0-8-3.589-8-8v-28.25zm-149.747-38h111.747c4.418 0 8-3.582 8-8s-3.582-8-8-8h-107v-56c0-8.822 7.178-16 16-16h35.059c4.274 0 8.292 1.664 11.313 4.687 12.509 12.507 32.747 12.507 45.256 0 3.021-3.022 7.039-4.687 11.313-4.687h35.059c8.822 0 16 7.178 16 16v56h-29c-4.418 0-8 3.582-8 8s3.582 8 8 8h33.747l22.579 22h-224.652z"/></g></svg>